<svg xmlns="http://www.w3.org/2000/svg" width="1970.089" height="1970.089" viewBox="0 0 521.253 521.253">
  <g style="display:inline">
    <path d="M1377.736 143.84c20.975-.153 33.527.729 33.768.746 63.794 36.467 138.42 106.375 195.78 156.635-7.417 1.56-56.044 13.416-89.725 62.066l.42.291-.479-.172s-49.983 140.469 4.045 297.15c.063.274 3.204 13.784 17.592 36.202 14.488 22.575 40.383 54.193 86.017 90.504-4.04 4.126-76.05 76.705-153.127 87.156l.07.496-.232-.445s-95.688 49.813-172.338 45.824c-.412-.178-83.05-35.858-164.076-99.402-81.218-63.694-160.664-155.3-153.959-267.008 13.494-65.49-2.013-158.933-11.244-188.56 40.06-123.206 150.297-178.377 250.633-202.77 62.734-15.252 121.559-18.456 156.855-18.713z" style="color:#000;display:inline;fill:#000;stroke-width:3.77953;-inkscape-stroke:none" transform="scale(.26458)"/>
    <path d="M1382.885 142.822c-34.594-.018-96.256 2.714-162.24 18.756-100.549 24.445-211.238 79.842-251.399 203.578l.477.155-.477.148c9.142 29.192 24.715 122.984 11.258 188.252l.465.094-.473-.028c-6.761 112.234 72.987 204.11 154.334 267.905 81.347 63.794 164.373 99.566 164.373 99.566l.203-.469-.027.506c76.788 4.042 172.002-45.43 172.871-45.883 79.843-10.872 154.016-87.84 154.016-87.84l-.361-.345.308-.393c-45.833-36.397-71.762-68.056-86.234-90.605-14.472-22.55-17.475-35.936-17.475-35.936l-.486.111.473-.162c-53.846-156.15-4.168-296.14-4.055-296.457 36.311-52.38 90.017-61.771 90.017-61.771l-.086-.492.329-.371c-57.46-50.31-132.509-120.761-196.786-157.479l-.252.443.037-.51s-5.653-.402-15.709-.626c-3.77-.084-8.16-.144-13.101-.147zm-42.721 1196.049c-82.955 8.279-130.078 50.642-156.406 90.916-26.329 40.274-31.912 78.498-31.912 78.498l.498.07-.44.24c23.633 42.877 46.767 70.746 64.002 87.897 17.236 17.15 28.612 23.607 28.612 23.607l.244-.437-.03.504s3.922.21 11.102-1.264 17.657-4.636 30.893-11.36c26.47-13.446 63.968-41.16 108.19-98.208l-.395-.303.498.037c6.093-79.21-54.39-169.977-54.39-169.977l-.415.276z" style="color:#000;display:inline;fill:#000;stroke-width:3.77953;-inkscape-stroke:none" transform="scale(.26458)"/>
    <path d="M1394.617 1509.717c2.027 1.397 31.247 21.978 52.024 61.53.017.137 2.99 24.833-7.057 52.462-10.075 27.706-33.178 58.235-85.644 69.67 0 0-17.057 3.689-39.198-3.691-22.02-7.34-49.038-25.62-69.193-69.514 1.486-.015 4.992-.185 10.285-1.272 7.18-1.474 17.657-4.636 30.893-11.359 26.41-13.416 63.8-41.04 107.89-97.826z" style="color:#000;display:inline;fill:#000;stroke-width:3.77953;-inkscape-stroke:none" transform="scale(.26458)"/>
    <path d="m1394.799 1508.617-.28.412-.392-.3c-44.15 56.956-81.534 84.56-107.85 97.927-13.158 6.684-23.55 9.81-30.642 11.266-7.092 1.456-10.844 1.24-10.844 1.24l-.029.502-.459.207c20.286 44.63 47.739 63.301 70.121 70.762 22.382 7.46 39.73 3.728 39.73 3.728 52.77-11.5 76.205-42.365 86.368-70.312 10.162-27.948 7.117-53.018 7.117-53.018l-.016-.088-.045-.082c-21.646-41.263-52.78-62.244-52.78-62.244z" style="color:#000;display:inline;fill:#999;stroke-width:3.77953;-inkscape-stroke:none" transform="scale(.26458)"/>
    <path d="M1230.15 1718.855c2.199 2.693 16.402 20.35 29.553 43.036 14.286 24.643 27.07 54.997 21.414 77.62l.483.118-.49-.096c-12.37 63.278-50.836 91.97-86.258 104.926-35.168 12.863-67.214 10.15-67.674 10.111-62.331-30.759-104.057-95.76-108.06-102.162 142.156-21.57 207.2-127.14 211.032-133.553z" style="color:#000;display:inline;fill:#999;fill-opacity:1;stroke-width:3.77953;-inkscape-stroke:none" transform="scale(.26458)"/>
    <path d="m1230.47 1717.672-.382.318-.438-.252s-64.738 111.888-211.431 133.797l.074.498-.422.256s42.957 70.695 108.965 103.22l.218-.446-.04.5s32.534 2.874 68.185-10.166c35.648-13.04 74.45-42.06 86.889-105.65 5.792-23.17-7.184-53.634-21.518-78.36-14.334-24.727-30.103-43.717-30.103-43.717z" style="color:#000;display:inline;fill:#999;fill-opacity:1;stroke-width:3.77953;-inkscape-stroke:none" transform="scale(.26458)"/>
    <path d="M1151.863 1509.045c.162 7.114 3.854 118.403 77.614 208.98-1.817 3.093-66.596 111.822-211.079 133.483-.789-.455-33.509-19.514-65.029-68.793-31.854-49.801-62.304-130.359-56.71-253.473 6.19 1.483 116.434 26.74 255.204-20.197z" style="color:#000;display:inline;fill:#000;stroke-width:3.77953;-inkscape-stroke:none" transform="scale(.26458)"/>
    <path d="M1152.178 1507.879c-142.881 48.526-255.88 20.256-255.88 20.256l-.118.484-.5-.025c-5.729 123.637 24.834 204.61 56.847 254.66 32.014 50.051 65.522 69.213 65.522 69.213l.244-.43.072.489c147.143-21.976 212.156-134.285 212.156-134.285l-.431-.248.386-.319c-76.195-93.339-77.634-209.322-77.634-209.322h-.502z" style="color:#000;display:inline;fill:#000;stroke-width:3.77953;-inkscape-stroke:none" transform="scale(.26458)"/>
    <path d="M723.967 1328.727c32.2 8.767 69.406 37.11 69.658 37.302 2.952 14.157 3.185 23.924 2.672 30.112-.451 5.439-1.447 8.092-1.69 8.673-32.797 22.807-61.487 19.343-61.529 19.338h-.014c-27.415-5.239-45.467-13.895-56.656-21.23-10.69-7.008-14.803-12.458-15.178-12.963.745-.527 39.605-28.068 62.737-61.234z" style="color:#000;display:inline;fill:#999;fill-opacity:1;stroke-width:3.77953;-inkscape-stroke:none" transform="scale(.26458)"/>
    <path d="m723.889 1327.674-.131.482-.416-.29c-23.172 33.387-63.123 61.63-63.123 61.63l-.414.287.297.414s4.446 6.15 15.752 13.56c11.305 7.412 29.494 16.124 57.054 21.386l.024.01h.013s29.216 3.508 62.348-19.584l-.29-.414.452.214s1.313-2.816 1.838-9.146c.525-6.33.29-16.23-2.725-30.59l-.037-.185-.148-.11s-37.764-28.88-70.494-37.662z" style="color:#000;display:inline;fill:#999;fill-opacity:1;stroke-width:3.77953;-inkscape-stroke:none" transform="scale(.26458)"/>
    <path d="m629.68 1287.242-.104.486c49.099 10.355 89.347 37.673 93.48 40.543-22.513 32.21-60.352 59.452-62.619 61.069-57.918-22.457-74.119-66.009-75.113-68.822 15.77-17.885 26.903-26.083 34.051-29.8 3.589-1.865 6.172-2.603 7.84-2.878 1.668-.276 2.353-.112 2.353-.112z" style="color:#000;display:inline;fill:#000;stroke-width:3.77953;-inkscape-stroke:none" transform="scale(.26458)"/>
    <path d="M628.703 1286.691c-.429.01-.98.05-1.65.16-1.787.296-4.475 1.068-8.143 2.975-7.335 3.814-18.607 12.145-34.533 30.244l.379.334-.475.16s15.61 46.483 76.041 69.803l.182-.469.29.41s40.046-28.254 63.374-61.867l-.414-.289.289-.406s-42.157-30-94.252-40.988c0 0-.373-.078-1.088-.065z" style="color:#000;display:inline;fill:#000;stroke-width:3.77953;-inkscape-stroke:none" transform="scale(.26458)"/>
    <path d="M496.674 1472.162c.211 1.813 3.096 26.66 5.181 52.711 1.083 13.518 1.937 27.21 2.053 37.861.058 5.326-.075 9.893-.443 13.28-.184 1.693-.427 3.09-.73 4.127-.304 1.036-.689 1.69-.99 1.92l-.044.037-.039.045s-22.599 27.273-56.736 42.23c-34.136 14.956-79.697 17.672-126.045-31.557-2.103-2.336-5.229-9.08-8.549-17.746-3.32-8.665-6.909-19.298-10.217-29.617a1344.182 1344.182 0 0 1-11.722-38.69c12.068 7.942 30.673 9.844 51.902 8.284 21.92-1.612 46.66-6.941 69.914-13.332 44.547-12.244 83.246-28.214 86.465-29.553z" style="color:#000;display:inline;fill:#999;fill-opacity:1;stroke-width:3.77953;-inkscape-stroke:none" transform="scale(.26458)"/>
    <path d="M496.902 1470.984s-40.526 17.002-86.959 29.764c-23.216 6.38-47.908 11.7-69.722 13.303-21.815 1.603-40.735-.534-52.405-8.895l-.295.41-.472.135s5.492 19.405 12.115 40.063c3.311 10.329 6.906 20.964 10.238 29.66 3.332 8.695 6.335 15.4 8.733 18.064l.35-.314-.344.322c46.588 49.49 92.793 46.864 127.191 31.793 34.309-15.032 56.9-42.29 57.018-42.432.626-.477 1.013-1.307 1.343-2.435.331-1.129.58-2.574.768-4.303.376-3.458.5-8.05.441-13.398-.116-10.695-.967-24.399-2.05-37.928-2.167-27.059-5.256-53.408-5.256-53.408l-.5.06z" style="color:#000;display:inline;fill:#999;fill-opacity:1;stroke-width:3.77953;-inkscape-stroke:none" transform="scale(.26458)"/>
    <path d="M269.031 1307.674c3.576 4.551 18.038 21.15 48.15 34.437 35.068 15.475 91.335 26.448 176.272 8.772-.999 1.858-1.687 4.626-2.2 8.14-.617 4.24-.948 9.552-1.062 15.555-.226 12.006.41 26.774 1.36 41.131 1.86 28.138 4.886 54.365 5.008 55.418-1.84.768-41.273 17.159-86.616 29.621-23.216 6.38-47.908 11.7-69.722 13.303-21.75 1.599-40.619-.524-52.297-8.823-.127-.25-1.097-2.227-2.61-7.476-1.62-5.623-3.802-14.872-6.052-29.344-4.472-28.763-9.19-78.19-10.23-160.734z" style="color:#000;display:inline;fill:#000;stroke-width:3.77953;-inkscape-stroke:none" transform="scale(.26458)"/>
    <path d="m268.92 1305.867-.418.287-.498.01c1 83.517 5.759 133.392 10.27 162.403 2.255 14.505 4.447 23.788 6.081 29.46 1.635 5.673 2.73 7.774 2.73 7.774l.433-.227-.284.395c12.019 8.61 31.14 10.692 53.06 9.08 21.922-1.611 46.661-6.94 69.915-13.332 46.508-12.782 87.084-29.807 87.084-29.807l-.195-.463.498-.054s-3.153-27.066-5.05-55.749c-.947-14.34-1.584-29.088-1.359-41.043.113-5.977.45-11.256 1.057-15.427.608-4.171 1.526-7.24 2.658-8.711l-.4-.31-.102-.487c-85.416 17.982-141.794 6.988-176.818-8.467-35.024-15.455-48.662-35.33-48.662-35.33z" style="color:#000;display:inline;fill:#000;stroke-width:3.77953;-inkscape-stroke:none" transform="scale(.26458)"/>
    <path d="M484.979 388.928c15.238.222 30.529 8.13 45.341 20.814 20.61 17.647 40.195 44.512 57.13 72.483 33.867 55.941 57.134 116.287 57.134 116.287l.467-.182-.164.477s118.744 40.525 203.955 29.705l.502-.067-.074-.502s-6.682-46.822 7.953-111.175c48.937 24.754 79.844 34.161 98.56 37.365 9.395 1.608 15.724 1.654 19.717 1.29 2.496-.226 4.104-.623 4.959-.888-6.357 111.89 73.208 203.496 154.371 267.147 81.347 63.794 164.373 99.566 164.373 99.566l.203-.469-.027.506c73.815 3.885 164.494-41.598 172.196-45.537-.064 2.331-1.171 41.784-3.873 85.34-1.393 22.44-3.204 45.77-5.499 65.271-2.294 19.501-5.113 35.22-8.378 42.217-13.41 28.736-26.7 85.817-87.69 154.43l-.14.162.021.213s6.988 73.233-26.06 115.512c-82.824 8.329-129.891 50.654-156.197 90.894-25.727 39.355-31.603 76.496-31.86 78.184-142.281 48.235-254.796 20.362-255.531 20.18-81.071-37.955-100.47-121.348-100.838-122.96.279-.682 1.312-3.516 1.764-8.97.525-6.33.289-16.231-2.725-30.59l-.037-.186-.148-.11s-37.7-28.828-70.41-37.638c-.751-.532-42.557-30.05-94.182-40.94 0 0-.952-.199-2.738.097-1.787.295-4.476 1.068-8.143 2.974-7.305 3.798-18.517 12.08-34.34 30.026-7.886-1.713-15.21-2.55-21.984-2.692-20.577-.43-36.11 5.513-47.125 12.448-13.996 8.81-20.664 19.135-21.268 20.1-85.3 17.92-141.616 6.932-176.611-8.51-34.808-15.36-48.461-35.045-48.63-35.288-.307-.893-130.285-378.551 168.665-661.341l-.344-.362.485-.127s-13.815-54.27-17.016-112.898c-1.6-29.314-.543-59.71 6.201-84.922 6.745-25.213 19.14-45.194 40.203-53.887 5.916-2.441 11.87-3.532 17.832-3.445z" style="color:#000;display:inline;fill:#999;fill-opacity:1;stroke-width:3.77953;-inkscape-stroke:none" transform="scale(.26458)"/>
    <path d="M484.455 387.932a46.658 46.658 0 0 0-1.52.02c-5.403.159-10.799 1.277-16.165 3.491-21.436 8.847-34.004 29.178-40.793 54.559-6.79 25.381-7.843 55.863-6.239 85.238 3.161 57.896 16.59 111.26 16.983 112.807-299.457 283.509-168.688 662.27-168.688 662.27l.467-.16-.406.278s13.861 20.132 49.088 35.676c35.226 15.545 91.84 26.551 177.423 8.533l-.103-.494.43.258s6.56-10.83 21.06-19.959c14.5-9.128 36.904-16.534 68.658-9.56l.108-.485.373.33c15.872-18.038 27.067-26.284 34.244-30.015 3.589-1.866 6.172-2.604 7.84-2.88 1.668-.275 2.353-.11 2.353-.11l.112-.487-.104.486c51.846 10.934 93.89 40.83 93.89 40.83l.296-.415-.133.49c32.277 8.66 69.743 37.204 69.996 37.396 2.952 14.157 3.185 23.924 2.672 30.112-.516 6.22-1.742 8.798-1.742 8.798l.449.213-.486.112s19.103 85.275 101.449 123.808l.213-.455-.117.485s113.294 28.345 256.439-20.27l-.162-.476.494.07s5.553-38.008 31.758-78.094c26.205-40.086 73.019-82.216 155.676-90.465l-.051-.494.39.31c33.429-42.545 26.479-115.482 26.412-116.17 61.003-68.693 74.421-126.035 87.713-154.517 3.413-7.313 6.169-22.987 8.467-42.52 2.298-19.532 4.107-42.88 5.5-65.33 2.785-44.9 3.897-86.22 3.897-86.22l-.498-.012-.233-.446s-95.688 49.813-172.338 45.825c-.412-.178-83.049-35.859-164.076-99.403-81.23-63.702-160.688-155.324-153.957-267.054l-.498-.03-.21-.449s-1.49.717-5.382 1.07c-3.89.354-10.126.32-19.45-1.277-18.65-3.192-49.645-12.621-98.86-37.566l-.227.45-.482-.11c-14.733 64.287-8.248 110.808-8.135 111.613-83.905 10.462-200.487-28.813-202.822-29.603-.461-1.193-23.535-60.746-57.123-116.225-16.964-28.02-36.584-54.957-57.336-72.727-15.078-12.91-30.807-20.992-46.514-21.05z" style="color:#000;display:inline;fill:gray;fill-opacity:1;stroke-width:3.77953;-inkscape-stroke:none" transform="scale(.26458)"/>
    <path d="M1246.957 351.723c8.386.007 16.593 1.446 24.467 4.648 25.176 10.239 47.121 38.55 60.699 96.094-21.509 63.725-47.443 95.825-74.127 108.2-26.703 12.383-54.277 5.117-79.281-10.15-49.32-30.112-88.14-91.059-89.205-92.74 1.226-1.522 47.82-59.104 101.113-88.802 18.565-10.346 37.884-17.266 56.334-17.25z" style="color:#000;display:inline;fill:#fff;stroke-width:3.77953;-inkscape-stroke:none" transform="scale(.26458)"/>
    <path d="M1246.342 350.72c-18.494.137-37.762 7.103-56.207 17.382-54.275 30.245-101.633 89.32-101.633 89.32l.392.316-.421.268s39.4 62.63 89.726 93.357c25.163 15.364 53.141 22.76 80.219 10.203 27.077-12.557 53.134-44.962 74.697-108.914l-.478-.164.492-.115c-13.614-57.8-35.723-86.51-61.328-96.924-6.401-2.603-13.01-4.065-19.746-4.549a72.356 72.356 0 0 0-5.713-.18z" style="color:#000;display:inline;fill:#ccc;stroke-width:3.77953;-inkscape-stroke:none" transform="scale(.26458)"/>
    <path d="M-16.596-136.234c11.147 0 20.184 9.401 20.184 21.005 0 11.605-9.037 21.006-20.184 21.006-11.146 0-20.185-9.401-20.185-21.006 0-11.604 9.039-21.005 20.185-21.005z" style="color:#000;display:inline;fill:#520;-inkscape-stroke:none" transform="translate(342.372 236.843)"/>
    <path d="M-16.596-136.438c-11.261 0-20.388 9.5-20.388 21.21s9.127 21.208 20.388 21.208c11.262 0 20.389-9.498 20.389-21.209 0-11.71-9.127-21.209-20.389-21.209z" style="color:#000;display:inline;fill:#520;-inkscape-stroke:none" transform="translate(342.372 236.843)"/>
    <path d="M1227.938 408.65c24.34 0 44.085 20.572 44.085 45.989 0 25.417-19.745 45.99-44.085 45.99s-44.077-20.573-44.077-45.99 19.736-45.989 44.076-45.989z" style="color:#000;display:inline;fill:#000;stroke-width:3.77953;-inkscape-stroke:none" transform="scale(.26458)"/>
    <path d="M1227.938 407.63c-24.914 0-45.096 21.064-45.096 47.009 0 25.944 20.182 47.007 45.095 47.007 24.914 0 45.104-21.063 45.104-47.007 0-25.945-20.19-47.008-45.103-47.008z" style="color:#000;display:inline;fill:#000;stroke-width:3.77953;-inkscape-stroke:none" transform="scale(.26458)"/>
    <path d="M1608.395 302.016c.291.014 41.83 2.095 84.75 22.716 43.071 20.695 87.429 59.973 92.812 134.668 1.339 123.64-30.79 216.4-30.986 216.967-28.96 47.128-61.264 74.714-86.326 90.526-24.189 15.26-41.429 19.495-42.623 19.777-45.713-36.332-71.592-67.934-86.043-90.451-14.472-22.55-17.475-35.936-17.475-35.936l-.486.112.472-.163c-53.845-156.15-4.167-296.14-4.054-296.457 36.094-52.066 89.322-61.646 89.959-61.76z" style="color:#000;display:inline;fill:#fff;stroke-width:3.77953;-inkscape-stroke:none" transform="scale(.26458)"/>
    <path d="m1608.393 301.014-.025.494-.084-.487s-54.182 9.481-90.725 62.266l.42.291-.479-.172s-49.983 140.469 4.045 297.15c.063.274 3.204 13.784 17.592 36.202 14.535 22.648 40.546 54.397 86.457 90.855l.309-.394.111.49s17.976-4.077 43.162-19.967c25.187-15.89 57.63-43.606 86.678-90.894l-.428-.262.473.166s32.405-93.174 31.055-217.389l-.498.004.498-.033c-5.41-75.064-50.098-114.71-93.373-135.502-43.276-20.793-85.188-22.818-85.188-22.818z" style="color:#000;display:inline;fill:#ccc;stroke-width:3.77953;-inkscape-stroke:none" transform="scale(.26458)"/>
    <path d="M1686.47 431.055c10.109.031 25.417 4.874 47.49 22.568-38.901 5.152-55.067 1.077-61.358-4.086-3.178-2.607-3.911-5.46-3.891-7.705.02-2.201.774-3.744.803-3.803.054-.08.997-1.45 3.168-3.004 2.235-1.6 5.724-3.335 10.777-3.832a29.824 29.824 0 0 1 3.012-.138z" style="color:#000;display:inline;fill:#000;stroke-width:3.77953;-inkscape-stroke:none" transform="scale(.26458)"/>
    <path d="M1686.473 430.053a30.886 30.886 0 0 0-3.11.144c-5.234.515-8.904 2.327-11.263 4.016-2.36 1.689-3.442 3.293-3.442 3.293l.414.273-.443-.222s-.892 1.79-.914 4.267c-.022 2.478.852 5.699 4.252 8.489 6.8 5.579 23.439 9.56 63.29 4.156l-.07-.496.315-.389c-22.673-18.383-38.474-23.5-49.029-23.531z" style="color:#000;display:inline;fill:#000;stroke-width:3.77953;-inkscape-stroke:none" transform="scale(.26458)"/>
    <path d="M128.17-83.848s-1.717 2.274-4.525 4.028c-2.809 1.753-7.525 3.426-15.178 2.924l-.086 1.32c7.881.517 12.91-1.216 15.965-3.123 3.054-1.908 3.55-3.418 3.55-3.418z" style="color:#000;display:inline;fill:#000;-inkscape-stroke:none" transform="translate(342.372 236.843)"/>
    <path d="M1274.883 101.28c51.452-.018 86.563 14.846 134.664 42.195-2.128-.127-6.15-.341-13.56-.506-30.169-.673-99.931.276-175.343 18.61-100.15 24.347-210.351 79.413-250.908 202.122-5.52-17.328-10.583-27.867-14.308-34.111-1.915-3.21-3.472-5.284-4.563-6.563a17.873 17.873 0 0 0-1.39-1.476c1.274-1.925 26.198-39.448 60.882-81.703 35.597-43.368 81.305-91.41 121.51-110.104 35.339-11.91 58.176-19.08 94.617-24.806 17.895-2.452 33.805-3.654 48.399-3.659z" style="color:#000;display:inline;fill:#e6e6e6;stroke-width:3.77953;-inkscape-stroke:none" transform="scale(.26458)"/>
    <path d="M1274.88 100.293c-14.645 0-30.598 1.198-48.528 3.654l.096.721-.112-.72c-36.518 5.737-59.447 12.943-94.812 24.863l.154.457-.207-.444c-40.541 18.839-86.248 66.968-121.889 110.389-35.64 43.42-61.181 82.146-61.181 82.146l.416.278-.305.394s.544.408 1.594 1.639 2.578 3.263 4.467 6.43c3.777 6.333 8.991 17.214 14.673 35.359l.477-.148.477.154c40.02-123.307 150.306-178.51 250.68-202.912 100.376-24.403 190.741-17.961 190.741-17.961l.037-.487.252-.443c-47.153-26.935-81.85-42.121-130.83-43.295-2.04-.049-4.107-.074-6.2-.074z" style="color:#000;display:inline;fill:#ccc;stroke-width:3.77953;-inkscape-stroke:none" transform="scale(.26458)"/>
    <path d="M1164.383 18.023c9.193-.008 17.23 3.877 24.246 10.032 8.636 7.574 15.685 18.596 21.217 29.933 10.4 21.314 15.394 43.435 15.963 46.043-36.022 5.695-58.866 12.848-93.75 24.6-.587-2.745-5.476-26.398-5.061-51.346.22-13.259 1.96-26.801 6.637-37.56 4.676-10.76 12.227-18.726 24.197-21.053a34.431 34.431 0 0 1 6.55-.649z" style="color:#000;display:inline;fill:#666;stroke-width:3.77953;-inkscape-stroke:none" transform="scale(.26458)"/>
    <path d="M1164.379 17.031a35.4 35.4 0 0 0-6.738.666c-12.315 2.395-20.16 10.673-24.922 21.63-4.763 10.956-6.503 24.608-6.725 37.943-.444 26.669 5.205 52.115 5.205 52.115l.483-.106.158.475c35.356-11.917 58.196-19.089 94.65-24.816l-.078-.497.492-.103s-5.033-23.97-16.166-46.785c-5.566-11.408-12.656-22.539-21.45-30.252-6.597-5.785-14.175-9.643-22.745-10.201a32.894 32.894 0 0 0-2.164-.069zM619.486 159.533c12.276.036 26.774 2.685 42.72 7.293 36.444 10.532 80.43 31.29 122.855 54.287 84.785 45.96 163.335 100.837 163.45 100.918 0 0 .544.408 1.594 1.639s2.578 3.263 4.467 6.43c3.778 6.333 8.992 17.214 14.674 35.359 9.13 29.153 24.673 122.733 11.31 187.99-.493.192-2.016.694-5.152.979-3.89.353-10.126.319-19.45-1.278-18.645-3.19-49.628-12.616-98.817-37.545-.294-.247-80.679-67.878-154.893-144.449-37.175-38.355-72.787-78.945-95.965-114.375-11.588-17.714-20.07-34.141-24.088-48.32-4.017-14.179-3.57-26.062 2.555-34.836 6.135-8.788 16.331-13.116 29.617-13.943a78.75 78.75 0 0 1 5.123-.149z" style="color:#000;display:inline;fill:#666;stroke-width:3.77953;-inkscape-stroke:none" transform="scale(.26458)"/>
    <path d="M619.484 158.535a79.901 79.901 0 0 0-5.187.149c-13.472.839-24.024 5.284-30.37 14.373-6.354 9.102-6.757 21.337-2.695 35.675 4.063 14.339 12.584 30.832 24.206 48.596 23.242 35.53 58.89 76.144 96.09 114.524 74.396 76.758 155.019 144.566 155.019 144.566l.318-.38-.22.439c49.275 24.975 80.348 34.44 99.138 37.656 9.395 1.608 15.724 1.654 19.717 1.29 3.993-.362 5.713-1.157 5.713-1.157l-.215-.455.488.1c13.527-65.603-2.06-159.285-11.287-188.749-5.7-18.203-10.943-29.154-14.771-35.572-1.915-3.21-3.472-5.284-4.563-6.563-1.09-1.279-1.742-1.787-1.742-1.787l-.307.397.286-.41s-78.655-54.963-163.569-100.993c-42.457-23.015-86.473-43.797-123.049-54.367-16.001-4.624-30.58-7.298-43-7.332z" style="color:#000;display:inline;fill:#666;stroke-width:3.77953;-inkscape-stroke:none" transform="scale(.26458)"/>
  </g>
</svg>
